<svg xmlns="http://www.w3.org/2000/svg" viewBox="0 0 800 600">
  <defs>
    <linearGradient id="studioGrad" x1="0%" y1="0%" x2="0%" y2="100%">
      <stop offset="0%" style="stop-color:#0a0e27;stop-opacity:1" />
      <stop offset="50%" style="stop-color:#1a1a3e;stop-opacity:1" />
      <stop offset="100%" style="stop-color:#2d1b69;stop-opacity:1" />
    </linearGradient>
    <filter id="glow">
      <feGaussianBlur stdDeviation="4" result="coloredBlur"/>
      <feMerge>
        <feMergeNode in="coloredBlur"/>
        <feMergeNode in="SourceGraphic"/>
      </feMerge>
    </filter>
    <radialGradient id="spotlight">
      <stop offset="0%" style="stop-color:#ff00ff;stop-opacity:0.3" />
      <stop offset="100%" style="stop-color:#ff00ff;stop-opacity:0" />
    </radialGradient>
  </defs>

  <!-- Background -->
  <rect width="800" height="600" fill="url(#studioGrad)"/>

  <!-- Floor grid -->
  <g stroke="#00ffff" stroke-width="1" opacity="0.2">
    <line x1="0" y1="500" x2="800" y2="500"/>
    <line x1="0" y1="520" x2="800" y2="520"/>
    <line x1="0" y1="540" x2="800" y2="540"/>
    <line x1="0" y1="560" x2="800" y2="560"/>
    <line x1="0" y1="580" x2="800" y2="580"/>
    <line x1="100" y1="500" x2="100" y2="600"/>
    <line x1="200" y1="500" x2="200" y2="600"/>
    <line x1="300" y1="500" x2="300" y2="600"/>
    <line x1="400" y1="500" x2="400" y2="600"/>
    <line x1="500" y1="500" x2="500" y2="600"/>
    <line x1="600" y1="500" x2="600" y2="600"/>
    <line x1="700" y1="500" x2="700" y2="600"/>
  </g>

  <!-- Spotlights -->
  <ellipse cx="200" cy="100" rx="150" ry="300" fill="url(#spotlight)" opacity="0.4">
    <animate attributeName="opacity" values="0.3;0.5;0.3" dur="3s" repeatCount="indefinite"/>
  </ellipse>
  <ellipse cx="600" cy="100" rx="150" ry="300" fill="url(#spotlight)" opacity="0.4">
    <animate attributeName="opacity" values="0.5;0.3;0.5" dur="3s" repeatCount="indefinite"/>
  </ellipse>

  <!-- Left Pirate Skeleton -->
  <g transform="translate(150, 280)">
    <ellipse cx="0" cy="40" rx="35" ry="60" fill="#1a1a3e" stroke="#00ffff" stroke-width="2" opacity="0.8"/>
    <ellipse cx="0" cy="-20" rx="30" ry="35" fill="#e0e0e0" stroke="#00ffff" stroke-width="2"/>
    <circle cx="-12" cy="-25" r="7" fill="#000000"/>
    <circle cx="12" cy="-25" r="7" fill="#000000"/>
    <circle cx="-12" cy="-25" r="4" fill="#00ffff" filter="url(#glow)">
      <animate attributeName="opacity" values="0.8;1;0.8" dur="2s" repeatCount="indefinite"/>
    </circle>
    <circle cx="12" cy="-25" r="4" fill="#00ffff" filter="url(#glow)">
      <animate attributeName="opacity" values="0.8;1;0.8" dur="2s" repeatCount="indefinite"/>
    </circle>
    <polygon points="0,-15 -5,-8 5,-8" fill="#000000"/>
    <rect x="-15" y="-5" width="4" height="6" fill="#ffffff"/>
    <rect x="-8" y="-5" width="4" height="6" fill="#ffffff"/>
    <rect x="-1" y="-5" width="4" height="6" fill="#ffffff"/>
    <rect x="6" y="-5" width="4" height="6" fill="#ffffff"/>
    <rect x="13" y="-5" width="4" height="6" fill="#ffffff"/>
    <path d="M -30,-35 Q -20,-45 0,-45 Q 20,-45 30,-35 L 25,-30 L -25,-30 Z" fill="#ff0000" stroke="#ff00ff" stroke-width="1"/>
    <circle cx="25" cy="-35" r="3" fill="#ffffff"/>
    <line x1="-30" y1="30" x2="-50" y2="60" stroke="#e0e0e0" stroke-width="4"/>
    <line x1="30" y1="30" x2="50" y2="60" stroke="#e0e0e0" stroke-width="4"/>
    <rect x="-55" y="60" width="110" height="30" rx="3" fill="#2d2d2d" stroke="#00ffff" stroke-width="2"/>
    <g fill="#00ffff" opacity="0.6">
      <rect x="-45" y="68" width="8" height="8" rx="1"/>
      <rect x="-34" y="68" width="8" height="8" rx="1"/>
      <rect x="-23" y="68" width="8" height="8" rx="1"/>
      <rect x="-12" y="68" width="8" height="8" rx="1"/>
      <rect x="-1" y="68" width="8" height="8" rx="1"/>
      <rect x="10" y="68" width="8" height="8" rx="1"/>
      <rect x="21" y="68" width="8" height="8" rx="1"/>
      <rect x="32" y="68" width="8" height="8" rx="1"/>
      <rect x="43" y="68" width="8" height="8" rx="1"/>
    </g>
    <line x1="-15" y1="100" x2="-15" y2="150" stroke="#e0e0e0" stroke-width="4"/>
    <line x1="15" y1="100" x2="15" y2="150" stroke="#e0e0e0" stroke-width="4"/>
  </g>

  <!-- Center Pirate Skeleton -->
  <g transform="translate(400, 250)">
    <ellipse cx="0" cy="50" rx="40" ry="70" fill="#1a1a3e" stroke="#ff00ff" stroke-width="2" opacity="0.8"/>
    <ellipse cx="0" cy="-15" rx="35" ry="40" fill="#e0e0e0" stroke="#ff00ff" stroke-width="2"/>
    <circle cx="-14" cy="-22" r="8" fill="#000000"/>
    <circle cx="14" cy="-22" r="8" fill="#000000"/>
    <circle cx="-14" cy="-22" r="5" fill="#ff00ff" filter="url(#glow)">
      <animate attributeName="opacity" values="0.7;1;0.7" dur="2.5s" repeatCount="indefinite"/>
    </circle>
    <circle cx="14" cy="-22" r="5" fill="#ff00ff" filter="url(#glow)">
      <animate attributeName="opacity" values="0.7;1;0.7" dur="2.5s" repeatCount="indefinite"/>
    </circle>
    <polygon points="0,-12 -6,-4 6,-4" fill="#000000"/>
    <rect x="-18" y="2" width="5" height="7" fill="#ffffff"/>
    <rect x="-10" y="2" width="5" height="7" fill="#ffffff"/>
    <rect x="-2" y="2" width="5" height="7" fill="#ffffff"/>
    <rect x="6" y="2" width="5" height="7" fill="#ffffff"/>
    <rect x="14" y="2" width="5" height="7" fill="#ffffff"/>
    <path d="M -40,-50 L -35,-45 L 35,-45 L 40,-50 Z" fill="#000000" stroke="#ff00ff" stroke-width="2"/>
    <path d="M -35,-45 Q 0,-55 35,-45" fill="#000000" stroke="#ff00ff" stroke-width="2"/>
    <text x="-8" y="-48" font-size="20" fill="#ffffff">☠️</text>
    <line x1="-35" y1="40" x2="-70" y2="80" stroke="#e0e0e0" stroke-width="5"/>
    <line x1="35" y1="40" x2="70" y2="80" stroke="#e0e0e0" stroke-width="5"/>
    <ellipse cx="-20" cy="100" rx="25" ry="35" fill="#ff0000" stroke="#ff00ff" stroke-width="3" filter="url(#glow)"/>
    <rect x="-22" y="65" width="8" height="70" fill="#8B4513" stroke="#ff00ff" stroke-width="2"/>
    <line x1="-20" y1="70" x2="-20" y2="130" stroke="#00ffff" stroke-width="1" opacity="0.6"/>
    <line x1="-18" y1="70" x2="-18" y2="130" stroke="#00ffff" stroke-width="1" opacity="0.6"/>
    <line x1="-16" y1="70" x2="-16" y2="130" stroke="#00ffff" stroke-width="1" opacity="0.6"/>
    <line x1="-18" y1="120" x2="-18" y2="180" stroke="#e0e0e0" stroke-width="5"/>
    <line x1="18" y1="120" x2="18" y2="180" stroke="#e0e0e0" stroke-width="5"/>
  </g>

  <!-- Right Pirate Skeleton -->
  <g transform="translate(650, 290)">
    <ellipse cx="0" cy="35" rx="32" ry="55" fill="#1a1a3e" stroke="#00ff00" stroke-width="2" opacity="0.8"/>
    <ellipse cx="0" cy="-25" rx="28" ry="32" fill="#e0e0e0" stroke="#00ff00" stroke-width="2"/>
    <circle cx="-11" cy="-30" r="6" fill="#000000"/>
    <circle cx="11" cy="-30" r="6" fill="#000000"/>
    <circle cx="-11" cy="-30" r="3" fill="#00ff00" filter="url(#glow)">
      <animate attributeName="opacity" values="0.9;1;0.9" dur="1.8s" repeatCount="indefinite"/>
    </circle>
    <circle cx="11" cy="-30" r="3" fill="#00ff00" filter="url(#glow)">
      <animate attributeName="opacity" values="0.9;1;0.9" dur="1.8s" repeatCount="indefinite"/>
    </circle>
    <polygon points="0,-20 -4,-14 4,-14" fill="#000000"/>
    <rect x="-14" y="-8" width="4" height="5" fill="#ffffff"/>
    <rect x="-8" y="-8" width="4" height="5" fill="#ffffff"/>
    <rect x="-2" y="-8" width="4" height="5" fill="#ffffff"/>
    <rect x="4" y="-8" width="4" height="5" fill="#ffffff"/>
    <rect x="10" y="-8" width="4" height="5" fill="#ffffff"/>
    <circle cx="-11" cy="-30" r="9" fill="#000000" stroke="#00ff00" stroke-width="2"/>
    <line x1="-20" y1="-32" x2="0" y2="-38" stroke="#000000" stroke-width="3"/>
    <line x1="-28" y1="25" x2="-45" y2="50" stroke="#e0e0e0" stroke-width="4"/>
    <line x1="28" y1="25" x2="45" y2="50" stroke="#e0e0e0" stroke-width="4"/>
    <line x1="-45" y1="50" x2="-55" y2="80" stroke="#8B4513" stroke-width="4"/>
    <circle cx="-55" cy="80" r="4" fill="#ffffff"/>
    <line x1="45" y1="50" x2="55" y2="80" stroke="#8B4513" stroke-width="4"/>
    <circle cx="55" cy="80" r="4" fill="#ffffff"/>
    <ellipse cx="0" cy="100" rx="50" ry="15" fill="#1a1a3e" stroke="#00ff00" stroke-width="2"/>
    <rect x="-50" y="75" width="100" height="25" fill="#4a4a4a" stroke="#00ff00" stroke-width="2"/>
    <line x1="-12" y1="90" x2="-12" y2="140" stroke="#e0e0e0" stroke-width="4"/>
    <line x1="12" y1="90" x2="12" y2="140" stroke="#e0e0e0" stroke-width="4"/>
  </g>

  <!-- Music notes floating -->
  <g fill="#00ffff" font-size="30" opacity="0.6" filter="url(#glow)">
    <text x="100" y="150">♪
      <animate attributeName="y" values="150;130;150" dur="3s" repeatCount="indefinite"/>
    </text>
    <text x="250" y="180">♫
      <animate attributeName="y" values="180;160;180" dur="2.5s" repeatCount="indefinite"/>
    </text>
    <text x="550" y="160">♪
      <animate attributeName="y" values="160;140;160" dur="3.2s" repeatCount="indefinite"/>
    </text>
    <text x="700" y="190">♫
      <animate attributeName="y" values="190;170;190" dur="2.8s" repeatCount="indefinite"/>
    </text>
  </g>

  <!-- Neon title -->
  <text x="400" y="80" font-size="48" font-weight="bold" fill="#ff00ff" text-anchor="middle" filter="url(#glow)">
    SHAPELESS STUDIO
    <animate attributeName="opacity" values="0.8;1;0.8" dur="2s" repeatCount="indefinite"/>
  </text>

  <text x="400" y="530" font-size="24" fill="#00ffff" text-anchor="middle" opacity="0.7">
    🏴‍☠️ Pirate Skeletons Making Music 🏴‍☠️
  </text>
</svg>
